<svg xmlns="http://www.w3.org/2000/svg" viewBox="0 0 512 512" role="img" aria-label="Burn After Reading">
  <defs>
    <radialGradient id="flame" cx="42%" cy="32%" r="68%">
      <stop stop-color="#fff7cc"/>
      <stop offset=".32" stop-color="#f59e0b"/>
      <stop offset=".72" stop-color="#d9480f"/>
      <stop offset="1" stop-color="#641e16"/>
    </radialGradient>
    <linearGradient id="bg" x1="80" y1="40" x2="430" y2="470" gradientUnits="userSpaceOnUse">
      <stop stop-color="#2b2117"/>
      <stop offset="1" stop-color="#0f0f10"/>
    </linearGradient>
  </defs>
  <rect width="512" height="512" rx="112" fill="url(#bg)"/>
  <path d="M283 86c19 70-27 93-9 135 13-32 47-53 79-62-7 58 60 84 60 165 0 88-71 147-157 147S99 411 99 324c0-67 42-113 83-153 32-32 76-60 101-85Z" fill="url(#flame)"/>
  <path d="M263 441c-46 0-83-31-83-78 0-38 26-63 55-88 6 36 28 47 28 82 17-28 38-43 62-49-3 24 21 39 21 73 0 37-33 60-83 60Z" fill="#fff4b8" opacity=".88"/>
  <text x="256" y="80" text-anchor="middle" font-family="Inter, Arial, sans-serif" font-size="42" font-weight="800" fill="#ffffff">BAR</text>
</svg>
